# xmcd
#
# Track frame offsets:
#	150
#	25753
#	47598
#	66970
#	82152
#	103666
#	122916
#	142758
#	168584
#	191606
#	225509
#
# Disc length: 3729 seconds
#
# Revision: 1
# Processed by: cddbd v1.5.2PL0 Copyright (c) Steve Scherf et al.
# Submitted via: audiograbber 1.83.01
#
DISCID=900e8f0b
DTITLE=Firefly - Ruined World
DYEAR=2010
DGENRE=
TTITLE0=Get Me Out
TTITLE1=House Of The Seven Gables
TTITLE2=The Sinner
TTITLE3=A King Can...
TTITLE4=Sold My Soul
TTITLE5=Look At Me Now
TTITLE6=Kiss My Truck
TTITLE7=Lucifer
TTITLE8=Never Die
TTITLE9=Ruined World
TTITLE10=(A King Can) Never Die (Video)
EXTD=
EXTT0=
EXTT1=
EXTT2=
EXTT3=
EXTT4=
EXTT5=
EXTT6=
EXTT7=
EXTT8=
EXTT9=
EXTT10=
PLAYORDER=
